<svg width="100" height="100" viewBox="0 0 100 100" fill="none" xmlns="http://www.w3.org/2000/svg">
<g clip-path="url(#clip0_66_7)">
<path d="M15.5943 67.0435C15.8207 67.0187 16.2999 66.8897 16.6594 66.7568C17.0188 66.6239 17.5287 66.3286 17.7921 66.1006C18.0556 65.8726 18.4056 65.4915 18.5698 65.2538C18.7341 65.0161 18.964 64.5526 19.0808 64.2239C19.1993 63.8902 19.299 63.3813 19.3063 63.0722C19.3135 62.7676 19.2598 62.2449 19.1867 61.9108C19.0988 61.5085 18.8816 61.0554 18.5436 60.5692C18.1872 60.0565 17.8521 59.7174 17.4333 59.4455C16.8921 59.0939 16.7284 59.0411 15.7591 58.9049C14.8076 58.7711 14.6133 58.7762 14.0607 58.9486C13.7174 59.0557 13.1811 59.3247 12.8687 59.5464C12.5564 59.7682 12.1215 60.198 11.9023 60.5017C11.683 60.8053 11.417 61.3364 11.311 61.6818C11.1849 62.0928 11.1212 62.5376 11.1267 62.9695C11.1312 63.3323 11.2395 63.9443 11.3671 64.3294C11.5018 64.7352 11.7707 65.2334 12.0068 65.5142C12.2309 65.7807 12.6828 66.1767 13.011 66.394C13.472 66.6994 13.7868 66.8233 14.3953 66.9388C14.8285 67.0211 15.368 67.0682 15.5943 67.0435Z" fill="#006088"/>
<path d="M64.4638 21.3004C64.7982 21.211 65.2186 21.0598 65.398 20.9643C65.5773 20.8688 65.8902 20.6557 66.0931 20.4909C66.296 20.326 66.6153 20.0053 66.8026 19.7782C66.9898 19.5512 67.2612 19.0305 67.4054 18.6213C67.6125 18.0338 67.6633 17.742 67.6466 17.2365C67.6349 16.8843 67.5489 16.3404 67.4553 16.0277C67.3618 15.7151 67.1225 15.2123 66.9237 14.9103C66.6888 14.5538 66.3184 14.1938 65.8674 13.8835C65.3048 13.4965 65.021 13.3738 64.3736 13.2381C63.7217 13.1012 63.4476 13.0947 62.8862 13.2031C62.5077 13.2761 61.9868 13.4425 61.7287 13.5728C61.4706 13.7031 61.0826 13.9634 60.8667 14.1511C60.6507 14.3388 60.329 14.721 60.1518 15.0003C59.9746 15.2797 59.7384 15.7821 59.6267 16.1169C59.4762 16.5687 59.431 16.892 59.4514 17.3718C59.4665 17.7271 59.5515 18.2489 59.6401 18.5311C59.7288 18.8133 60.0106 19.3406 60.2665 19.703C60.5716 20.135 60.9361 20.4938 61.3258 20.7459C61.8231 21.0674 62.0779 21.1572 62.8879 21.2965C63.7161 21.4388 63.9435 21.4394 64.4638 21.3004Z" fill="#006088"/>
<path d="M77.1237 71.8384C77.4177 71.788 77.936 71.6089 78.2753 71.4402C78.6147 71.2716 79.097 70.9288 79.3471 70.6787C79.5973 70.4285 79.9411 69.9419 80.1113 69.5974C80.363 69.0878 80.4351 68.8032 80.4977 68.071C80.5502 67.4583 80.526 66.9977 80.4221 66.6278C80.3382 66.3291 80.1007 65.8167 79.8944 65.4894C79.6475 65.098 79.2827 64.7207 78.8285 64.387C78.1522 63.8904 78.1154 63.8766 77.0617 63.7276C76.0519 63.585 75.9408 63.5905 75.2566 63.8184C74.8555 63.952 74.2838 64.2496 73.986 64.4796C73.6882 64.7097 73.2558 65.1811 73.0252 65.5272C72.6439 66.0993 72.5934 66.2458 72.4685 67.1383C72.3591 67.9201 72.3621 68.2486 72.4829 68.751C72.5763 69.1394 72.8178 69.6485 73.1116 70.0757C73.4288 70.5369 73.797 70.9123 74.2103 71.1957C74.7399 71.5589 74.962 71.6448 75.7105 71.776C76.303 71.8798 76.7632 71.9001 77.1237 71.8384Z" fill="#006088"/>
<path fill-rule="evenodd" clip-rule="evenodd" d="M25.2802 88.051C25.4519 88.0541 25.9222 88.0492 26.3252 88.0403C26.7282 88.0313 27.4754 87.946 27.9857 87.8506C28.496 87.7552 29.3323 87.5497 29.8442 87.3942C30.3561 87.2386 31.2064 86.9297 31.734 86.7078C32.2615 86.4859 33.1391 86.0851 33.6843 85.817C34.2294 85.549 35.3283 84.9398 36.1261 84.4632C36.9239 83.9865 38.3343 83.0763 39.2604 82.4404C40.1864 81.8046 41.5779 80.7841 42.3526 80.1727C43.1272 79.5614 44.511 78.4095 45.4277 77.6131C46.3445 76.8166 47.6784 75.6186 48.392 74.951C49.1055 74.2833 49.7352 73.7435 49.7911 73.7514C49.8471 73.7593 50.4371 74.2983 51.1022 74.9493C51.7673 75.6002 53.0833 76.8225 54.0266 77.6655C54.9699 78.5085 56.2723 79.629 56.921 80.1557C57.5696 80.6824 58.7774 81.6163 59.605 82.2312C60.4326 82.846 61.8204 83.7986 62.6892 84.3481C63.5579 84.8976 64.8378 85.6413 65.5334 86.0008C66.2289 86.3604 67.1297 86.8005 67.535 86.979C67.9404 87.1575 68.811 87.4773 69.4699 87.6898C70.2556 87.9432 71.1258 88.1412 71.9986 88.2653C72.8811 88.3908 73.5961 88.4321 74.1204 88.3883C74.5555 88.3519 75.204 88.2451 75.5615 88.1511C75.9191 88.0571 76.5239 87.8163 76.9057 87.616C77.2874 87.4157 77.7962 87.0773 78.0363 86.864C78.2763 86.6506 78.7346 86.0861 79.0544 85.6094C79.4212 85.0627 79.7433 84.4302 79.9268 83.8962C80.1549 83.2325 80.256 82.6893 80.3955 81.3803C80.5141 80.2659 80.5487 79.3649 80.4996 78.67C80.4592 78.0975 80.3396 77.065 80.2341 76.3756C80.1285 75.6861 79.8914 74.4879 79.7072 73.713C79.523 72.9381 79.3212 72.2754 79.2588 72.2406C79.1964 72.2057 78.8867 72.3046 78.5705 72.4602C78.2543 72.6157 77.7528 72.7881 77.4559 72.8435C77.1403 72.9022 76.9075 73.0057 76.8952 73.0928C76.8837 73.1748 76.9809 73.6943 77.1111 74.2475C77.2413 74.8006 77.4385 75.7639 77.5492 76.388C77.6599 77.0121 77.7897 78.0499 77.8375 78.6942C77.8854 79.3384 77.8855 80.358 77.8377 80.9598C77.783 81.6504 77.6671 82.3204 77.5234 82.7759C77.3982 83.1729 77.1297 83.7516 76.9268 84.062C76.7238 84.3724 76.3389 84.7921 76.0715 84.9949C75.8039 85.1976 75.3556 85.4353 75.0752 85.5232C74.7947 85.6111 74.2301 85.7074 73.8205 85.7373C73.2943 85.7757 72.7477 85.7295 71.9577 85.5798C71.3428 85.4634 70.37 85.2013 69.7961 84.9975C69.2221 84.7937 68.0509 84.2734 67.1934 83.8413C66.3358 83.4092 65.0733 82.7037 64.3876 82.2736C63.702 81.8435 62.5266 81.0521 61.7756 80.5152C61.0247 79.9781 59.9627 79.1815 59.4158 78.7449C58.8688 78.3084 58.0647 77.6483 57.6289 77.2781C57.1931 76.908 56.2113 76.0423 55.4471 75.3543C54.6829 74.6663 53.5517 73.6112 52.9331 73.0097C52.3147 72.4081 51.8187 71.8442 51.831 71.7565C51.8433 71.6689 52.5504 70.858 53.4022 69.9546C54.2541 69.0511 55.682 67.481 56.5753 66.4654L58.1995 64.6188L60.0255 64.2782C61.0298 64.0909 62.6261 63.7724 63.5727 63.5704C64.5194 63.3684 66.2181 62.9752 67.3477 62.6968C68.4772 62.4183 70.0097 62.0167 70.753 61.8043C71.4964 61.5919 72.151 61.4447 72.2077 61.4771C72.2644 61.5096 72.5087 61.9652 72.7507 62.4897C72.9926 63.0141 73.2486 63.452 73.3194 63.4628C73.3903 63.4736 73.7381 63.3376 74.0923 63.1606C74.4466 62.9837 74.9431 62.7875 75.1959 62.7247C75.4487 62.6619 75.6615 62.5669 75.669 62.5137C75.6765 62.4605 75.4984 62.035 75.2733 61.5683C75.0481 61.1015 74.8838 60.6837 74.9081 60.6396C74.9325 60.5956 75.7924 60.2618 76.8192 59.898C77.846 59.5341 79.084 59.0779 79.5704 58.8842C80.0567 58.6905 81.0298 58.2822 81.7327 57.977C82.4356 57.6717 83.6156 57.1266 84.3551 56.7655C85.0945 56.4044 86.1794 55.8406 86.7658 55.5125C87.3522 55.1846 88.4578 54.501 89.2227 53.9935C89.9877 53.4859 90.9603 52.7745 91.3842 52.4126C91.8081 52.0506 92.4398 51.4678 92.7879 51.1175C93.1361 50.7671 93.6183 50.229 93.8595 49.9216C94.1008 49.6143 94.5185 48.9741 94.7878 48.4988C95.0571 48.0237 95.378 47.32 95.5007 46.9352C95.6277 46.5373 95.7495 45.8713 95.7831 45.3913C95.8173 44.9026 95.7794 44.2458 95.6931 43.8314C95.6111 43.4378 95.4542 42.8955 95.3446 42.6261C95.2349 42.3569 94.9047 41.7833 94.6107 41.3514C94.3168 40.9196 93.731 40.2563 93.3088 39.8775C92.8866 39.4988 92.1694 38.9444 91.7148 38.6455C91.2603 38.3466 90.3716 37.8461 89.7401 37.5335C89.1085 37.2207 87.9224 36.7273 87.1042 36.4369C86.2861 36.1467 85.0512 35.7568 84.3599 35.5705C83.6688 35.3841 82.4421 35.091 81.6341 34.919C80.8261 34.747 79.6011 34.5266 78.9117 34.4292C77.8454 34.2783 77.6617 34.2279 77.681 34.091C77.6934 34.0023 77.9151 33.4052 78.1735 32.7639C78.432 32.1225 78.8844 30.8952 79.1789 30.0365C79.4735 29.1776 79.8794 27.8832 80.081 27.16C80.3434 26.218 80.5517 25.1118 80.8149 23.262C81.1103 21.1862 81.1722 20.4917 81.1306 19.7235C81.1021 19.1979 81.0275 18.4524 80.9649 18.0669C80.9022 17.6813 80.7411 17.0133 80.6066 16.5823C80.4723 16.1514 80.221 15.542 80.0481 15.2282C79.8753 14.9144 79.5046 14.3908 79.2243 14.0645C78.9441 13.7382 78.4868 13.3166 78.2082 13.1275C77.9296 12.9385 77.4825 12.6724 77.2147 12.5361C76.9468 12.3999 76.2937 12.2028 75.7632 12.0979C75.1171 11.9702 74.4866 11.9181 73.8533 11.9402C73.3334 11.9584 72.5234 12.0418 72.0533 12.1258C71.5833 12.2097 70.4592 12.5285 69.5554 12.8342C68.6516 13.1399 67.7875 13.4618 67.6354 13.5495L67.3587 13.7088L67.774 14.3315C68.0024 14.6739 68.2562 15.1633 68.3379 15.4189C68.4195 15.6745 68.533 15.9092 68.5899 15.9403C68.6469 15.9715 69.1108 15.8272 69.6208 15.6198C70.1307 15.4124 70.9687 15.1297 71.483 14.9915C71.9972 14.8532 72.7762 14.6972 73.214 14.6447C73.6932 14.5871 74.3564 14.596 74.8804 14.6671C75.5224 14.754 75.8919 14.8626 76.2886 15.0811C76.5845 15.2441 76.9638 15.5132 77.1317 15.6792C77.2995 15.8452 77.577 16.2377 77.7483 16.5512C77.9196 16.8648 78.1458 17.5359 78.2508 18.0424C78.3559 18.549 78.4589 19.4076 78.4799 19.9503C78.5065 20.6401 78.4392 21.4966 78.2565 22.7971C78.0972 23.9303 77.8466 25.2128 77.6151 26.079C77.4063 26.8611 77.0334 28.1128 76.7866 28.8605C76.5398 29.6083 76.0442 30.9678 75.6853 31.8817C75.3264 32.7956 74.9661 33.6126 74.8847 33.6971C74.7646 33.8219 74.4261 33.8262 73.0875 33.7201C72.1805 33.6482 70.6455 33.5512 69.6765 33.5046C68.7074 33.458 66.9771 33.4071 65.8315 33.3915C64.6859 33.3759 62.6638 33.3967 61.3381 33.4378C60.0123 33.4789 58.4728 33.5295 57.9171 33.5506L56.9066 33.5888L56.5911 33.2344C56.4175 33.0396 55.3578 31.8531 54.2363 30.598C53.1147 29.3428 52.2031 28.2732 52.2104 28.2212C52.2177 28.1692 52.7515 27.6283 53.3967 27.0192C54.0419 26.4101 55.3274 25.2561 56.2535 24.4546C57.1797 23.6531 58.4167 22.6186 59.0027 22.1555C59.5887 21.6925 60.0735 21.2627 60.08 21.2004C60.0866 21.1382 59.9193 20.9065 59.7083 20.6856C59.4973 20.4646 59.1958 20.0333 59.0383 19.727C58.8808 19.4206 58.6996 19.1605 58.6355 19.1488C58.5715 19.137 57.8615 19.6633 57.0577 20.3183C56.254 20.9734 55.1178 21.9162 54.5328 22.4135C53.9479 22.9109 52.7504 23.9873 51.8717 24.8057C50.9931 25.624 50.2514 26.2904 50.2236 26.2865C50.1959 26.2826 49.5876 25.7071 48.8721 25.0077C48.1566 24.3082 46.999 23.2209 46.2998 22.5912C45.6006 21.9615 44.576 21.066 44.023 20.6012C43.4699 20.1365 42.5098 19.359 41.8894 18.8737C41.2689 18.3884 40.0126 17.4708 39.0977 16.8347C38.1827 16.1986 36.8491 15.3302 36.1341 14.9049C35.4191 14.4796 34.2761 13.8621 33.5939 13.5326C32.9118 13.2031 31.7818 12.7236 31.0828 12.467C29.9999 12.0694 29.5624 11.9646 28.1243 11.758C26.8383 11.5734 26.26 11.535 25.6947 11.5971C25.2867 11.642 24.5409 11.8126 24.0374 11.9765C23.3597 12.197 22.9202 12.4285 22.3459 12.8674C21.8645 13.2352 21.3838 13.7223 21.0798 14.1502C20.8102 14.5295 20.4396 15.1887 20.2563 15.6152C19.9757 16.2676 19.8838 16.6682 19.6759 18.147C19.4628 19.6626 19.4413 20.0922 19.5195 21.2769C19.5694 22.0321 19.7152 23.2618 19.8437 24.0096C19.9721 24.7573 20.2419 26.0324 20.4434 26.8432C20.6448 27.6539 21.1012 29.1968 21.4575 30.2719C21.8138 31.347 22.4264 33.0217 22.8187 33.9934C23.2111 34.9652 23.8849 36.5372 24.3162 37.4867C24.7476 38.4364 25.0922 39.2719 25.0821 39.3436C25.0721 39.4151 24.856 39.5347 24.6019 39.6092C24.3477 39.6837 23.3976 40.0131 22.4903 40.3412C21.583 40.6693 20.193 41.2031 19.4013 41.5275C18.6097 41.8518 17.0298 42.5686 15.8905 43.1205C14.7512 43.6723 13.1269 44.5387 12.2808 45.0457C11.4348 45.5529 10.1523 46.418 9.43105 46.9683C8.70967 47.5187 7.7199 48.3772 7.23144 48.8762C6.74308 49.3752 6.10164 50.129 5.80607 50.5511C5.5105 50.9732 5.13507 51.5857 4.9718 51.9122C4.80843 52.2386 4.57161 52.8723 4.4455 53.3205C4.28471 53.8914 4.21609 54.3625 4.21599 54.8948C4.21603 55.3126 4.27015 55.9283 4.33633 56.263C4.40251 56.5977 4.60042 57.1815 4.77601 57.5604C4.9515 57.9392 5.32529 58.5464 5.60648 58.9097C5.88776 59.273 6.32506 59.7661 6.57837 60.0055C6.83168 60.2449 7.3148 60.6496 7.65198 60.9048C7.98917 61.1599 8.59806 61.5607 9.0051 61.7954C9.41205 62.0301 9.81209 62.2315 9.89395 62.243C9.99658 62.2575 10.0874 62.0987 10.187 61.731C10.2664 61.4379 10.4683 60.9166 10.6357 60.5728C10.8031 60.229 10.9055 59.9067 10.863 59.8568C10.8206 59.8068 10.4196 59.5323 9.97196 59.2467C9.52427 58.9611 8.8819 58.4853 8.54453 58.1892C8.20714 57.8931 7.76605 57.4099 7.56445 57.1151C7.36273 56.8205 7.1151 56.2986 7.0142 55.9556C6.9133 55.6125 6.84527 55.0794 6.86305 54.7709C6.88095 54.4625 6.99029 53.9562 7.10611 53.6459C7.22202 53.3357 7.46454 52.8418 7.64515 52.5486C7.82566 52.2554 8.15133 51.8033 8.36884 51.5438C8.58624 51.2844 9.09137 50.7625 9.49141 50.3841C9.89135 50.0056 10.6648 49.3606 11.2103 48.9509C11.7557 48.541 12.8688 47.8043 13.6838 47.3137C14.4988 46.8231 15.7711 46.1236 16.511 45.7592C17.2509 45.3948 18.4313 44.8475 19.1341 44.543C19.8369 44.2383 21.1643 43.7003 22.084 43.3473C23.0038 42.9941 24.3024 42.5187 24.9699 42.2906C25.6375 42.0626 26.2465 41.8849 26.3233 41.8957C26.4001 41.9064 27.0083 42.9047 27.6746 44.1141C28.341 45.3234 29.3652 47.1083 29.9504 48.0805C30.5357 49.0526 31.013 49.8585 31.0112 49.8712C31.0094 49.8841 30.5814 50.5659 30.0599 51.3863C29.5385 52.2068 28.6532 53.6598 28.0926 54.6152C27.5319 55.5705 26.746 56.9538 26.3462 57.6892C25.9464 58.4245 25.1533 59.9564 24.5838 61.0935L23.5482 63.1609L22.0038 62.9728L20.4593 62.7849L20.2613 63.7291C20.1524 64.2484 20.0154 64.8137 19.9569 64.9853C19.8519 65.2922 19.8576 65.2991 20.325 65.4322C20.5861 65.5064 21.1386 65.6148 21.5529 65.673C22.2227 65.7672 22.303 65.8005 22.2786 65.9738C22.2636 66.081 21.9986 66.8143 21.6898 67.6034C21.3811 68.3925 20.9202 69.6728 20.6658 70.4484C20.4113 71.2241 20.0578 72.4073 19.8802 73.0779C19.7026 73.7484 19.431 74.9669 19.2766 75.7856C19.1048 76.6963 18.9691 77.8021 18.9267 78.6343C18.8887 79.3824 18.8944 80.4265 18.9394 80.9544C18.9844 81.4824 19.1031 82.2592 19.2031 82.6806C19.3032 83.1021 19.5113 83.7575 19.6657 84.1371C19.8201 84.5167 20.1975 85.1691 20.5043 85.5869C20.9217 86.1554 21.2628 86.4801 21.8597 86.8778C22.2984 87.1702 22.8807 87.4904 23.1538 87.5895C23.4268 87.6887 23.9467 87.8319 24.3091 87.9077C24.6714 87.9835 25.1085 88.0479 25.2802 88.051ZM23.9912 85.0404C23.6984 84.9158 23.2572 84.6291 23.0107 84.4033C22.7644 84.1776 22.457 83.7882 22.3278 83.5382C22.1985 83.2882 22.0094 82.8348 21.9075 82.5307C21.8056 82.2266 21.6821 81.7113 21.633 81.3857C21.5838 81.06 21.5389 80.3424 21.533 79.7909C21.5271 79.2395 21.6235 78.0676 21.747 77.1866C21.8706 76.3056 22.1308 74.967 22.3254 74.2119C22.5199 73.4568 22.807 72.4302 22.9632 71.9305C23.1194 71.4308 23.4752 70.3902 23.7539 69.6179C24.0327 68.8457 24.4598 67.7439 24.703 67.1695L25.1453 66.1252L26.4253 66.2326C27.1294 66.2917 28.3573 66.3792 29.154 66.427C29.9508 66.4747 31.4447 66.5369 32.4738 66.5649C33.5028 66.5931 35.3085 66.6082 36.4864 66.5985C37.6643 66.5887 39.6395 66.5356 40.8757 66.4805C43.0635 66.3829 43.1284 66.386 43.3111 66.5995C43.4057 66.7098 43.755 67.1178 44.116 67.5394L44.1501 67.5792L44.216 67.6562C44.6104 68.1169 45.4006 69.0094 45.972 69.6397C46.5434 70.27 47.1851 70.9667 47.3979 71.188C47.6106 71.4093 47.7748 71.6613 47.7626 71.7481C47.7504 71.8349 47.347 72.2837 46.8659 72.7454C46.3849 73.2072 45.2432 74.2387 44.3287 75.038C43.4142 75.8371 42.2151 76.8522 41.6638 77.2936C41.1127 77.735 40.2924 78.3855 39.841 78.7391C39.3896 79.0927 38.3676 79.8286 37.5699 80.3743C36.7722 80.9202 35.6352 81.66 35.0431 82.0185C34.4512 82.3768 33.4606 82.9311 32.8419 83.2499C32.2231 83.5689 31.2258 84.0297 30.6256 84.274C30.0254 84.5182 29.0881 84.8396 28.5427 84.9881C27.9972 85.1365 27.2649 85.289 26.9152 85.3269C26.5655 85.3649 26.1615 85.3999 26.0173 85.4048C25.8731 85.4098 25.4781 85.3808 25.1394 85.3404C24.8008 85.2999 24.2841 85.165 23.9912 85.0404ZM48.081 67.992C47.2308 67.0683 46.5563 66.2698 46.5821 66.2176C46.6078 66.1654 48.1305 65.9534 49.9657 65.7466C51.8008 65.5399 53.4324 65.365 53.5911 65.3578C53.7606 65.3503 53.8734 65.391 53.8642 65.4565C53.8556 65.5177 53.452 65.9999 52.9672 66.5278C52.4823 67.0558 51.5928 68.0018 50.9903 68.63C50.3721 69.2747 49.8364 69.7504 49.7608 69.7218C49.6871 69.694 48.9311 68.9156 48.081 67.992ZM26.4534 63.4235C26.4297 63.369 26.6673 62.8138 26.9814 62.1896C27.2956 61.5655 27.9768 60.2686 28.4953 59.3077C29.0138 58.3468 29.8248 56.9036 30.2976 56.1007C30.7704 55.2978 31.4514 54.1645 31.8109 53.5823C32.1705 53.0002 32.5174 52.5139 32.5817 52.5019C32.6458 52.4899 33.2729 53.3328 33.9751 54.3751C34.6773 55.4173 36.4928 57.9219 38.0095 59.9407C39.5262 61.9595 40.7606 63.6573 40.7527 63.7138C40.7448 63.7701 40.325 63.8334 39.8199 63.8544C39.3147 63.8754 38.3129 63.9045 37.5934 63.9191C36.874 63.9337 35.3945 63.9365 34.3056 63.9253C33.2167 63.9141 31.5328 63.868 30.5635 63.8227C29.5942 63.7774 28.6148 63.7301 28.387 63.7176C28.1592 63.7049 27.6406 63.6559 27.2346 63.6086C26.8285 63.5612 26.477 63.478 26.4534 63.4235ZM44.0107 63.284C43.8547 63.1102 43.207 62.325 42.5713 61.5393C41.9357 60.7536 40.5869 58.991 39.574 57.6222C38.5612 56.2535 36.9735 54.0186 36.046 52.6557C35.1184 51.2929 34.3315 50.0854 34.2974 49.9723C34.2499 49.815 34.5649 49.2982 35.6394 47.77C36.4114 46.6718 37.2776 45.4505 37.5642 45.0561C37.8506 44.6617 38.5638 43.709 39.1488 42.9389C39.7338 42.1688 40.8416 40.7596 41.6103 39.8073C42.3791 38.8551 43.1033 38.0149 43.2197 37.9403C43.336 37.8658 44.3838 37.6635 45.548 37.491C46.7123 37.3184 49.0475 37.0278 50.7375 36.8451C52.4275 36.6625 54.2425 36.4874 54.7709 36.4561L55.7316 36.3992L56.0358 36.7371C56.203 36.9229 57.185 38.1395 58.2178 39.4405C59.2507 40.7416 60.7941 42.79 61.6476 43.9927C62.5011 45.1953 63.4164 46.495 63.6814 46.881C63.9465 47.2668 64.5188 48.123 64.9531 48.7837C65.3875 49.4443 65.7327 50.0576 65.7202 50.1465C65.7077 50.2355 65.0305 51.2621 64.2152 52.4278C63.4001 53.5936 62.2281 55.2279 61.6111 56.0596C60.9939 56.8915 59.8885 58.3247 59.1545 59.2446C58.4204 60.1645 57.5908 61.1857 57.3108 61.5139C57.0252 61.8487 56.6835 62.138 56.5324 62.1729C56.3844 62.2071 55.1817 62.3905 53.8598 62.5804C52.538 62.7703 50.3123 63.045 48.9139 63.1909C47.5156 63.3368 45.9673 63.4924 45.4732 63.5367C44.9792 63.581 44.5118 63.6134 44.4346 63.6086C44.3576 63.604 44.1668 63.4579 44.0107 63.284ZM61.0336 61.2193C61.0409 61.1671 61.3958 60.6835 61.8222 60.1446C62.2485 59.6057 63.249 58.2843 64.0454 57.2081C64.8418 56.1319 65.8892 54.6787 66.373 53.9787C66.8567 53.2787 67.2916 52.7115 67.3394 52.7183C67.3872 52.725 67.5878 52.9784 67.7853 53.2815C67.9828 53.5846 68.762 54.9334 69.5169 56.279C70.2718 57.6246 70.8659 58.7944 70.837 58.8787C70.8067 58.9671 70.2567 59.1765 69.5364 59.3737C68.85 59.5616 67.5104 59.9053 66.5596 60.1373C65.6087 60.3693 64.104 60.718 63.2159 60.9119C62.3278 61.106 61.5285 61.2803 61.4397 61.2993C61.351 61.3182 61.2202 61.3295 61.1493 61.324C61.0783 61.3186 61.0263 61.2715 61.0336 61.2193ZM73.3873 57.8624C73.3377 57.725 72.9043 56.8935 72.4241 56.0146C71.9439 55.1357 71.1529 53.7442 70.6662 52.9224C70.1796 52.1005 69.6158 51.1625 69.4132 50.8381C69.2107 50.5136 69.0531 50.1905 69.063 50.12C69.0729 50.0495 69.5106 49.3101 70.0355 48.4766C70.5604 47.6432 71.4496 46.1748 72.0115 45.2134C72.5734 44.252 73.3564 42.8683 73.7516 42.1385C74.1467 41.4087 74.9119 39.9259 75.4521 38.8435C75.9922 37.761 76.511 36.8403 76.6051 36.7974C76.7159 36.747 77.7184 36.8966 79.4514 37.2225C80.9228 37.4992 82.8197 37.9179 83.6668 38.1531C84.5138 38.3884 85.6612 38.7441 86.2166 38.9437C86.7718 39.1432 87.7332 39.5412 88.3529 39.8279C88.9726 40.1146 89.9081 40.6415 90.4318 40.9988C90.9555 41.3561 91.6217 41.9012 91.9122 42.2102C92.2028 42.5193 92.5575 43.0024 92.7004 43.2841C92.8433 43.5657 93.0111 44.001 93.0732 44.2513C93.1404 44.5226 93.1469 45.0018 93.0891 45.4376C93.0358 45.8398 92.8838 46.4112 92.7513 46.7074C92.6187 47.0036 92.2772 47.5688 91.9923 47.9635C91.7072 48.3581 91.2484 48.9101 90.9725 49.1901C90.6966 49.4701 89.9406 50.1159 89.2924 50.6252C88.6443 51.1346 87.5472 51.9085 86.8546 52.3451C86.1619 52.7817 85.1644 53.364 84.6379 53.6391C84.1115 53.9142 83.227 54.3605 82.6725 54.6306C82.118 54.9007 80.916 55.4352 80.0013 55.8182C79.0866 56.2011 77.3007 56.8807 76.0325 57.3283C74.7644 57.776 73.6707 58.1354 73.6022 58.1272C73.5337 58.1189 73.437 57.9998 73.3873 57.8624ZM31.7707 45.9526C31.3774 45.2797 30.616 43.9313 30.0788 42.956C29.5415 41.9808 29.1067 41.1485 29.1126 41.1065C29.1185 41.0644 29.2788 40.9748 29.4687 40.9073C29.6586 40.8398 30.6722 40.5602 31.7212 40.286C32.7701 40.0119 34.6849 39.5492 35.9762 39.2578C37.2675 38.9664 38.4643 38.7197 38.6358 38.7094C38.8145 38.6987 38.9416 38.7347 38.9333 38.7937C38.9253 38.8502 38.4116 39.5545 37.7917 40.3588C37.1718 41.163 36.0798 42.6161 35.3649 43.5879C34.6501 44.5597 33.7797 45.777 33.4307 46.293C33.033 46.8808 32.738 47.221 32.6408 47.2036C32.5555 47.1885 32.1639 46.6255 31.7707 45.9526ZM65.95 45.489C65.1693 44.3504 63.3263 41.8118 61.8545 39.8472C59.7949 37.0983 59.2154 36.2586 59.3387 36.2022C59.4268 36.1619 59.5322 36.1329 59.5729 36.1377C59.6136 36.1426 60.485 36.1235 61.5092 36.0955C62.5336 36.0675 64.2398 36.0484 65.3009 36.0533C66.3619 36.0582 68.2559 36.1131 69.5098 36.1755C70.7636 36.2378 72.1965 36.3161 72.694 36.3494C73.4734 36.4019 73.5954 36.4326 73.5758 36.5719C73.5633 36.6609 73.2032 37.4307 72.7755 38.2827C72.348 39.1347 71.6344 40.492 71.19 41.299C70.7456 42.1059 69.8607 43.6412 69.2236 44.7108C68.5865 45.7805 67.9235 46.861 67.7504 47.1119C67.5772 47.3628 67.4207 47.5661 67.4025 47.5636C67.3843 47.561 66.7307 46.6275 65.95 45.489ZM26.9313 36.7912C26.4927 35.8457 25.8417 34.3672 25.4848 33.5056C25.1279 32.644 24.5582 31.1394 24.219 30.1621C23.8797 29.1848 23.4594 27.8691 23.285 27.2383C23.1105 26.6076 22.8455 25.5053 22.696 24.7887C22.5465 24.0722 22.3681 23.0513 22.2996 22.5201C22.231 21.9888 22.1602 21.2913 22.1422 20.97C22.1242 20.6487 22.1308 19.9346 22.1568 19.3831C22.1849 18.7855 22.2894 18.0459 22.4154 17.5523C22.5317 17.0967 22.756 16.4845 22.9138 16.1918C23.0716 15.8991 23.3831 15.4791 23.6061 15.2584C23.829 15.0378 24.2796 14.7429 24.6075 14.603C24.9354 14.4632 25.4882 14.3157 25.8359 14.2751C26.2282 14.2294 26.9163 14.2646 27.649 14.3675C28.2985 14.4589 29.189 14.6511 29.6279 14.7944C30.0669 14.9379 30.7862 15.2043 31.2264 15.3864C31.6666 15.5686 32.4768 15.9505 33.0267 16.2352C33.5767 16.5198 34.3779 16.9612 34.8072 17.216C35.2364 17.4708 36.0901 18.0103 36.7042 18.4151C37.3183 18.8197 38.3863 19.5731 39.0776 20.0893C39.7689 20.6055 40.9026 21.4912 41.597 22.0577C42.2915 22.6242 43.5477 23.709 44.3887 24.4683C45.2296 25.2276 46.4443 26.362 47.0879 26.9891C47.7316 27.6162 48.2514 28.1768 48.2433 28.2349C48.2351 28.293 47.6362 28.9627 46.9124 29.7232C46.1885 30.4837 45.0885 31.6651 44.468 32.3486C43.8475 33.032 43.0054 33.991 42.5966 34.4797L41.8536 35.3681L39.5557 35.8021C38.2919 36.0407 36.6282 36.3732 35.8586 36.5407C35.089 36.7082 33.3394 37.1291 31.9707 37.4758C30.602 37.8226 29.1629 38.2056 28.7728 38.327C28.3827 38.4484 27.9882 38.5393 27.8962 38.529C27.7911 38.5173 27.4317 37.87 26.9313 36.7912ZM46.1013 34.5658C46.1088 34.5127 46.7124 33.8269 47.4426 33.0419C48.1728 32.2569 49.047 31.3216 49.3853 30.9635C49.7236 30.6053 50.0804 30.308 50.1782 30.3029C50.2761 30.2978 50.5298 30.4746 50.742 30.6958C50.9542 30.917 51.6351 31.6646 52.2552 32.3572C52.8752 33.0498 53.3884 33.673 53.3956 33.7421C53.404 33.8233 52.4816 33.9673 50.7818 34.1497C49.337 34.3047 47.7479 34.4882 47.2503 34.5576C46.7528 34.6269 46.2876 34.6788 46.2167 34.673C46.1457 34.6672 46.0939 34.6189 46.1013 34.5658Z" fill="#5B8C9E"/>
<path fill-rule="evenodd" clip-rule="evenodd" d="M47.8379 57.2119C47.9054 57.1546 48.1454 56.8492 48.3712 56.5332C48.7431 56.0127 48.8161 55.9605 49.1476 55.9787C49.4915 55.9976 49.537 56.0437 49.9006 56.7431C50.1134 57.1526 50.3485 57.4961 50.4232 57.5066C50.4979 57.5171 50.7967 57.4812 51.0872 57.4269C51.3776 57.3725 51.686 57.2865 51.7723 57.2355C51.8929 57.1643 51.9413 56.9553 51.9806 56.336C52.0301 55.5576 52.0423 55.5232 52.3277 55.3553C52.4904 55.2596 52.6849 55.19 52.7602 55.2006C52.8354 55.2111 53.1409 55.3726 53.4391 55.5594C53.7373 55.7462 54.062 55.9104 54.1607 55.9243C54.2594 55.9381 54.5649 55.7278 54.8395 55.4567C55.1141 55.1856 55.3436 54.9216 55.3493 54.8698C55.3551 54.8179 55.1925 54.4711 54.988 54.0991C54.7836 53.7269 54.6236 53.3725 54.6324 53.3114C54.6412 53.2503 54.7572 53.0665 54.8903 52.9029C55.1039 52.6402 55.2192 52.6021 55.8762 52.5764C56.2854 52.5606 56.6746 52.4974 56.7411 52.4363C56.8077 52.3751 56.9165 52.0148 56.9828 51.6356L57.1035 50.9462L56.4741 50.5984C56.128 50.407 55.8009 50.1872 55.7472 50.1097C55.6936 50.0323 55.6482 49.7913 55.6466 49.5742C55.6437 49.2023 55.6835 49.1497 56.3434 48.6554L57.0432 48.1312L56.8202 47.4668C56.6975 47.1015 56.5471 46.7775 56.4859 46.7468C56.4248 46.7161 56.0257 46.7132 55.5993 46.7402L54.824 46.7893L54.5563 46.446C54.4091 46.2571 54.3007 46.0162 54.3156 45.9106C54.3304 45.8051 54.4607 45.4257 54.6052 45.0675C54.8292 44.5123 54.8497 44.3938 54.7445 44.2622C54.6767 44.1774 54.4209 43.9513 54.1761 43.7595L53.731 43.4111L53.0506 43.9041C52.5828 44.2431 52.2874 44.3855 52.1048 44.3598C51.9588 44.3393 51.7321 44.2631 51.6012 44.1905C51.4164 44.0881 51.331 43.8812 51.2202 43.2676L51.0774 42.4767L50.5041 42.3646C50.1887 42.3029 49.8338 42.2885 49.7153 42.3326C49.5627 42.3893 49.4169 42.6351 49.2162 43.1742C48.9532 43.8806 48.9065 43.9426 48.5701 44.0319C48.3707 44.0849 48.1423 44.1191 48.0626 44.1079C47.9829 44.0967 47.6912 43.8384 47.4145 43.5338C47.0765 43.1619 46.8484 42.9914 46.719 43.0142C46.6132 43.0328 46.2939 43.2005 46.0094 43.3869L45.4923 43.7256L45.6236 44.4132C45.6959 44.7914 45.7729 45.1796 45.7948 45.2761C45.819 45.3823 45.7081 45.5662 45.5131 45.743L45.1914 46.0347L44.3986 45.8511L43.6059 45.6676L43.321 46.1416C43.1643 46.4022 42.9953 46.7324 42.9453 46.8753C42.8669 47.1002 42.9352 47.2196 43.4541 47.7652C43.9403 48.2765 44.0456 48.4506 44.0123 48.6877C43.9897 48.8483 43.8805 49.0402 43.7698 49.114C43.659 49.1878 43.3128 49.3352 43.0007 49.4417C42.6884 49.5482 42.3968 49.6793 42.3525 49.7331C42.3084 49.7868 42.2913 50.1054 42.3148 50.4411C42.3383 50.7767 42.3863 51.1385 42.4214 51.2448C42.4715 51.3964 42.6222 51.459 43.1202 51.5348C43.4693 51.588 43.8359 51.6774 43.9346 51.7337C44.0333 51.7899 44.1593 51.9584 44.2144 52.1081C44.3055 52.3553 44.2677 52.4441 43.8026 53.0745L43.2905 53.7686L43.7412 54.4094C43.989 54.7618 44.2499 55.0583 44.3207 55.0682C44.3915 55.0782 44.7653 54.96 45.1512 54.8055C45.792 54.549 45.8729 54.54 46.0845 54.7011C46.212 54.7982 46.3319 54.9977 46.351 55.1444C46.37 55.2911 46.3534 55.6734 46.3141 55.9942C46.2734 56.3259 46.2917 56.6282 46.3564 56.6959C46.4189 56.7612 46.7502 56.9275 47.0926 57.0654C47.5603 57.2536 47.7455 57.2901 47.8379 57.2119ZM46.7237 53.0905C46.9803 53.3489 47.419 53.684 47.6986 53.8351C47.9781 53.9862 48.4567 54.1692 48.7621 54.2417C49.0676 54.3142 49.5765 54.3683 49.8931 54.3617C50.2097 54.3551 50.7685 54.2509 51.1349 54.13C51.5364 53.9974 52.045 53.7136 52.4143 53.4158C52.7558 53.1405 53.213 52.6343 53.4463 52.273C53.7794 51.7573 53.8987 51.4518 54.0287 50.7816C54.1559 50.1257 54.167 49.7746 54.0785 49.1993C54.015 48.7864 53.8173 48.1745 53.6311 47.8142C53.4474 47.4592 53.0634 46.9438 52.7774 46.6688C52.4915 46.3939 51.975 46.0352 51.6296 45.8718C51.2842 45.7084 50.7351 45.5373 50.4093 45.4915C50.0835 45.4457 49.5094 45.4587 49.1335 45.5204C48.7577 45.5821 48.2127 45.7473 47.9224 45.8874C47.6323 46.0277 47.201 46.312 46.9642 46.5193C46.7275 46.7267 46.3496 47.1778 46.1246 47.522C45.7905 48.0327 45.6843 48.3115 45.5465 49.0403C45.4132 49.7454 45.4019 50.0906 45.493 50.6833C45.5605 51.1226 45.7428 51.6797 45.9326 52.0271C46.111 52.3536 46.467 52.8322 46.7237 53.0905Z" fill="#006088"/>
</g>
<defs>
<clipPath id="clip0_66_7">
<rect width="100" height="100" fill="white"/>
</clipPath>
</defs>
</svg>
