<svg width="16" height="18" viewBox="0 0 16 18" fill="none" xmlns="http://www.w3.org/2000/svg">
<path d="M3.5 0C2.88125 0 2.375 0.50625 2.375 1.125V16.875C2.375 17.4937 2.88125 18 3.5 18H14.75C15.3687 18 15.875 17.4937 15.875 16.875V4.5L11.375 0H3.5Z" fill="#E2E5E7"/>
<path d="M12.5 4.5H15.875L11.375 0V3.375C11.375 3.99375 11.8812 4.5 12.5 4.5Z" fill="#B0B7BD"/>
<path d="M15.875 7.875L12.5 4.5H15.875V7.875Z" fill="#CAD1D8"/>
<path d="M13.625 14.625C13.625 14.9344 13.3719 15.1875 13.0625 15.1875H0.6875C0.378125 15.1875 0.125 14.9344 0.125 14.625V9C0.125 8.69062 0.378125 8.4375 0.6875 8.4375H13.0625C13.3719 8.4375 13.625 8.69062 13.625 9V14.625Z" fill="#F15642"/>
<path d="M2.57715 10.6577C2.57715 10.5092 2.69415 10.3472 2.88259 10.3472H3.92152C4.50652 10.3472 5.03302 10.7387 5.03302 11.489C5.03302 12.2 4.50652 12.596 3.92152 12.596H3.17059V13.19C3.17059 13.388 3.04459 13.5 2.88259 13.5C2.73409 13.5 2.57715 13.388 2.57715 13.19V10.6577ZM3.17059 10.9136V12.0341H3.92152C4.22302 12.0341 4.46152 11.768 4.46152 11.489C4.46152 11.1746 4.22302 10.9136 3.92152 10.9136H3.17059ZM5.9139 13.5C5.7654 13.5 5.6034 13.419 5.6034 13.2215V10.6667C5.6034 10.5052 5.7654 10.3877 5.9139 10.3877H6.94384C8.99921 10.3877 8.95421 13.5 6.98434 13.5H5.9139ZM6.1974 10.9367V12.9515H6.94384C8.15827 12.9515 8.21227 10.9367 6.94384 10.9367H6.1974ZM9.68321 10.9727V11.6876H10.8301C10.9921 11.6876 11.1541 11.8496 11.1541 12.0065C11.1541 12.155 10.9921 12.2765 10.8301 12.2765H9.68321V13.221C9.68321 13.3785 9.57127 13.4994 9.41377 13.4994C9.21577 13.4994 9.09484 13.3785 9.09484 13.221V10.6661C9.09484 10.5047 9.21634 10.3871 9.41377 10.3871H10.9927C11.1907 10.3871 11.3077 10.5047 11.3077 10.6661C11.3077 10.8101 11.1907 10.9721 10.9927 10.9721H9.68321V10.9727Z" fill="white"/>
<path d="M13.0625 15.1875H2.375V15.75H13.0625C13.3719 15.75 13.625 15.4969 13.625 15.1875V14.625C13.625 14.9344 13.3719 15.1875 13.0625 15.1875Z" fill="#CAD1D8"/>
</svg>
